<?xml version="1.0" standalone="no"?>
<!DOCTYPE svg PUBLIC "-//W3C//DTD SVG 20010904//EN"
 "http://www.w3.org/TR/2001/REC-SVG-20010904/DTD/svg10.dtd">
<svg version="1.0" xmlns="http://www.w3.org/2000/svg"
 width="600.000000pt" height="1040.000000pt" viewBox="0 0 600.000000 1040.000000"
 preserveAspectRatio="xMidYMid meet">
<metadata>
Created by potrace 1.16, written by Peter Selinger 2001-2019
</metadata>
<g transform="translate(0.000000,1040.000000) scale(0.100000,-0.100000)"
fill="#000000" stroke="none">
<path d="M4827 10369 c-73 -48 -146 -118 -167 -160 -44 -86 -13 -149 73 -149
73 0 114 21 133 70 22 53 60 73 144 74 95 1 125 -15 146 -76 23 -70 22 -137
-2 -179 -22 -38 -54 -56 -221 -125 -156 -63 -187 -88 -231 -182 -39 -86 -51
-160 -32 -216 15 -46 37 -57 95 -49 70 9 92 34 116 128 11 43 24 87 29 96 5 9
58 33 117 54 224 78 297 133 344 253 26 67 31 218 10 291 -16 56 -96 142 -164
176 -48 23 -61 25 -197 25 l-147 0 -46 -31z"/>
<path d="M4170 10348 c-60 -41 -68 -62 -84 -208 -9 -74 -24 -179 -36 -233 -26
-127 -41 -299 -32 -361 6 -45 10 -50 42 -62 19 -7 51 -13 71 -13 45 -1 54 17
69 144 6 50 29 160 50 245 58 234 90 383 90 423 0 75 -99 113 -170 65z"/>
<path d="M1996 10023 c-97 -29 -183 -101 -245 -203 -28 -47 -28 -88 2 -99 32
-12 44 -5 87 58 47 70 99 117 159 145 64 29 174 28 259 -3 82 -30 112 -24 112
23 0 31 -4 35 -48 54 -102 44 -233 54 -326 25z"/>
<path d="M2055 9825 c-111 -41 -213 -191 -160 -235 25 -21 63 -3 84 39 26 50
82 98 131 111 31 8 54 7 109 -6 80 -19 104 -11 99 35 -6 56 -170 90 -263 56z"/>
<path d="M2495 9539 c-271 -29 -529 -189 -683 -424 -173 -264 -200 -625 -67
-912 163 -354 517 -569 905 -550 138 7 245 33 358 87 151 72 260 159 352 282
129 170 191 355 191 568 1 265 -82 476 -260 663 -205 215 -495 319 -796 286z
m115 -1190 c106 -26 200 -134 200 -228 0 -92 -80 -192 -181 -227 -196 -67
-414 51 -414 226 0 169 192 280 395 229z"/>
<path d="M1614 9470 c-58 -23 -133 -84 -162 -133 -38 -62 -970 -2461 -977
-2514 -13 -99 43 -238 118 -296 68 -52 119 -70 202 -74 l80 -4 510 171 c281
95 520 174 531 177 19 4 31 -12 94 -125 141 -258 232 -505 264 -724 18 -122
21 -382 6 -508 -17 -137 -66 -365 -110 -508 -40 -133 -41 -134 -122 -230 -323
-381 -582 -843 -749 -1329 -183 -535 -262 -1102 -238 -1705 11 -291 33 -495
84 -785 65 -367 100 -465 204 -568 110 -109 221 -155 375 -155 152 0 273 49
375 151 138 138 181 318 130 549 -178 814 -146 1560 96 2235 56 157 200 452
288 592 77 122 186 267 256 343 l51 55 -7 -65 c-15 -128 -8 -862 10 -1060 58
-627 167 -1160 353 -1717 78 -233 203 -550 290 -732 56 -117 72 -141 131 -200
257 -251 681 -183 840 136 75 149 79 303 12 457 -252 582 -367 933 -463 1416
-88 438 -120 771 -120 1245 0 479 35 836 119 1205 173 756 244 1265 248 1767
l2 222 43 -67 c67 -106 206 -395 257 -536 131 -365 211 -775 235 -1204 26
-458 25 -444 56 -501 34 -64 80 -106 154 -140 47 -22 68 -26 150 -26 109 0
160 18 229 80 102 92 115 152 101 459 -25 558 -98 1000 -236 1429 -215 666
-597 1230 -1057 1560 -269 193 -348 206 -710 119 l-208 -50 -52 -49 c-245
-231 -626 -325 -950 -235 l-67 19 -123 -28 c-67 -16 -261 -76 -431 -134 -170
-58 -312 -104 -316 -103 -4 2 59 172 140 378 l147 375 -17 35 c-83 168 -122
385 -101 560 30 250 129 456 303 629 80 80 82 83 63 98 -79 60 -236 81 -331
43z"/>
<path d="M3989 9288 c-44 -45 -62 -92 -54 -144 12 -80 88 -108 169 -61 48 26
72 65 81 129 7 46 7 47 -35 77 -61 44 -116 43 -161 -1z"/>
<path d="M4609 9208 c-47 -38 -54 -49 -57 -84 -4 -48 24 -89 74 -110 47 -20
82 -17 139 10 85 40 121 101 93 156 -15 27 -90 60 -154 67 -37 4 -47 0 -95
-39z"/>
</g>
</svg>
